<svg width="1067" height="600" viewBox="0 0 1067 600" fill="none" xmlns="http://www.w3.org/2000/svg">
<g clip-path="url(#clip0_1200_177)">
<path d="M383.33 338L576.33 190L660.33 165C692.61 149.43 727.25 131 763.33 109C795.71 89.3 825.02 69.37 851.33 50L991.33 61L1074.33 197C1080 259 1085.67 321 1091.33 383L661.33 382L467.33 389L595.33 363L383.33 338Z" fill="url(#paint0_linear_1200_177)"/>
<path opacity="0.23" d="M472.33 389L653.33 364L702.33 382L472.33 389Z" fill="url(#paint1_linear_1200_177)"/>
<path opacity="0.16" d="M452.33 359L568.33 304C564.997 313.667 561.663 323.333 558.33 333L628.33 304L571.33 366L452.33 359Z" fill="url(#paint2_linear_1200_177)"/>
<path opacity="0.24" d="M898.33 54C905.663 75.3333 912.997 96.6667 920.33 118L968.33 209L905.33 161C914.997 187 924.663 213 934.33 239L952.33 306L901.33 260C917.997 301 934.663 342 951.33 383H1091.33C1085.67 321 1080 259 1074.33 197L991.33 61L898.33 54Z" fill="url(#paint3_linear_1200_177)"/>
<path opacity="0.27" d="M794.33 382C792.997 329.333 791.663 276.667 790.33 224L813.33 241L825.33 167C853.003 239 880.67 311 908.33 383L794.33 382Z" fill="url(#paint4_linear_1200_177)"/>
<path opacity="0.28" d="M752.33 211C737.997 233.333 723.663 255.667 709.33 278C705.67 302 702.003 326 698.33 350L752.33 211Z" fill="url(#paint5_linear_1200_177)"/>
<path d="M441.33 293L574.33 191L660.33 165L767.33 106L884.33 28C858.997 61.3333 833.663 94.6667 808.33 128L553.33 274L592.33 214L441.33 293Z" fill="url(#paint6_linear_1200_177)"/>
<path d="M547.33 333C556.663 319.667 565.997 306.333 575.33 293L656.33 248L547.33 333Z" fill="url(#paint7_linear_1200_177)"/>
<path d="M884.33 55L852.33 101L779.33 166L869.33 121L884.33 55Z" fill="url(#paint8_linear_1200_177)"/>
<path d="M582.33 355C588.85 346.8 595.84 338.44 603.33 330C618.996 312.361 635.691 295.666 653.33 280L624.33 332L582.33 355Z" fill="url(#paint9_linear_1200_177)"/>
<path d="M272.33 96L371.33 194L452.33 287L602.33 367C441.07 369.16 387.08 377.55 386.33 388C385.72 396.5 420.52 404 419.33 411C417.1 424.13 291.98 413 281.33 412C215.84 406 123.76 395.2 11.3301 374C7.67008 330.333 4.00341 286.667 0.330078 243L137.33 109L208.33 71L272.33 96Z" fill="url(#paint10_linear_1200_177)"/>
<path opacity="0.26" d="M210.33 70L158.33 116L126.33 159L168.33 142C144.73 169.753 121.063 198.087 97.3301 227C55.6301 277.84 15.6301 328.173 -22.6699 378C-23.3366 344.667 -24.0033 311.333 -24.6699 278C-1.66992 250.5 23.6201 222 51.3301 193C80.6301 162.32 109.48 134.37 137.33 109L210.33 70Z" fill="url(#paint11_linear_1200_177)"/>
<path opacity="0.26" d="M43.3301 380C91.0034 323.333 138.67 266.667 186.33 210L133.33 304L185.33 261C158.997 304 132.663 347 106.33 390L43.3301 380Z" fill="url(#paint12_linear_1200_177)"/>
<path opacity="0.31" d="M245.33 197C237.33 209.14 229.33 221.807 221.33 235C207.65 257.63 195.33 279.7 184.33 301C200.997 279.333 217.663 257.667 234.33 236C237.997 223 241.663 210 245.33 197Z" fill="url(#paint13_linear_1200_177)"/>
<path opacity="0.24" d="M177.33 400C197.997 369.333 218.663 338.667 239.33 308C239.997 315 240.663 322 241.33 329L293.33 243L299.33 327L382.33 417L177.33 400Z" fill="url(#paint14_linear_1200_177)"/>
<path opacity="0.21" d="M440.33 374L573.33 367L420.33 319L455.33 351L427.33 375L440.33 374Z" fill="url(#paint15_linear_1200_177)"/>
<path d="M211.33 72L270.33 95L361.33 184L427.33 259L449.33 288L537.33 332L441.33 316L373.33 243L241.33 115L211.33 72Z" fill="url(#paint16_linear_1200_177)"/>
<path d="M339.33 309L394.33 360L444.33 373L391.33 383L364.33 384C356.003 359 347.67 334 339.33 309Z" fill="url(#paint17_linear_1200_177)"/>
<path d="M270.33 167C282.003 190 293.67 213 305.33 236L328.33 238L270.33 167Z" fill="url(#paint18_linear_1200_177)"/>
<path d="M58.3301 337L214.33 303L325.33 364L475.33 407L428.33 411L473.33 425L359.33 435L431.33 460H10.3301L58.3301 337Z" fill="url(#paint19_linear_1200_177)"/>
<path opacity="0.19" d="M358.33 435L346.33 425C365.56 423.58 386.33 422.79 408.33 423C425.17 423.16 441.2 423.88 456.33 425L358.33 435Z" fill="url(#paint20_linear_1200_177)"/>
<path opacity="0.24" d="M386.33 403L473.33 407L428.33 411L386.33 403Z" fill="url(#paint21_linear_1200_177)"/>
<path d="M359.33 383C401.68 395 441.54 397.12 441.33 402C441.22 404.56 430.19 405.65 430.33 407C430.52 408.81 450.72 408.29 475.33 407C454.65 401.36 423.33 392.59 385.33 381C318.38 360.58 285.1 348 284.33 350C283.56 352 316.52 370.84 359.33 383Z" fill="url(#paint22_linear_1200_177)"/>
<path d="M396.33 405C426.17 411.81 428.92 411.05 443.33 415C458.46 419.14 475.72 425.54 475.33 427C474.94 428.46 455.41 425.32 437.33 420C432.96 418.71 434.46 419 419.33 414C397.7 406.84 386.21 403.46 386.33 403C386.42 402.7 391.51 403.9 396.33 405Z" fill="url(#paint23_linear_1200_177)"/>
<path d="M350.33 431C351 429.69 367.33 438 403.33 451C414.15 454.91 423.16 458 429.33 460C414.997 459.558 400.822 456.858 387.33 452C366.31 444.39 349.63 432.38 350.33 431Z" fill="url(#paint24_linear_1200_177)"/>
<path d="M256.33 327C272.664 335.707 289.33 344.373 306.33 353C315.044 357.413 323.71 361.747 332.33 366C312.38 360.89 300.56 358.22 300.33 359C299.79 360.85 376.39 382.66 375.33 387C374.88 388.87 360.04 387.4 324.33 381C329.27 386.34 333.99 392.41 332.33 395C328.89 400.39 300.22 387.05 299.33 389C298.2 391.49 344.73 413.44 343.33 417C341.51 421.66 259.25 390.51 256.33 397C253.88 402.46 316.49 430.77 314.33 436C311.76 442.25 213.25 426.22 208.33 386C204.83 357.37 250.45 330.4 256.33 327Z" fill="url(#paint25_linear_1200_177)"/>
<path d="M365.33 402C360.69 400.28 354.77 396.53 355.33 395C356.51 391.85 385.52 397.7 385.33 401C385.22 403 374.75 405.49 365.33 402Z" fill="#BAE8BE"/>
<path d="M304.33 418C315.59 424.62 327.94 428 328.33 427C329.03 425.32 294.18 408.51 293.33 410C292.94 410.7 299.9 415.4 304.33 418Z" fill="#BAE8BE"/>
<path d="M256.33 336C272.92 346.85 279.5 350.06 280.33 349C281 348.15 277.56 345.1 278.33 344C280.04 341.58 300.33 350.95 299.33 355C298.71 357.6 289.74 356.24 289.33 358C288.06 363.54 374.78 388.78 375.33 387C375.88 385.22 300.83 360.51 301.33 359C301.65 358.05 331.4 368.29 332.33 366C333.01 364.34 318.7 356 257.33 328C257 330.67 256.67 333.33 256.33 336Z" fill="url(#paint26_linear_1200_177)"/>
<path d="M265.33 368C266.21 366.86 282.52 378.48 300.33 390C328.85 408.45 344.04 415.52 343.33 417C342.28 419.2 307.86 405.46 308.33 404C308.57 403.28 317.02 405.88 317.33 405C318.1 402.82 268.08 382.63 268.33 382C268.44 381.74 277.16 385.76 278.33 384C280 381.46 264.46 369.14 265.33 368Z" fill="url(#paint27_linear_1200_177)"/>
<path d="M315.33 375C315.44 374.84 320.33 377.23 325.33 382C326.12 382.75 335.39 391.66 333.33 395C331.98 397.19 326.33 396 326.33 396C326.33 396 330.6 396.58 331.33 395C332.06 393.42 329.38 391 328.33 390C324.02 385.82 319.16 384.56 319.33 384C319.5 383.44 324.77 385.1 325.33 384C326.2 382.3 315.17 375.25 315.33 375Z" fill="url(#paint28_linear_1200_177)"/>
<path d="M356.33 397C357.98 398.2 360.42 396.82 363.33 396C365.7 395.33 368.24 395.89 373.33 397C377.467 397.881 381.492 399.222 385.33 401C380.872 398.799 376.174 397.121 371.33 396C366.73 394.89 356.16 392.83 355.33 395C355.09 395.64 355.72 396.56 356.33 397Z" fill="url(#paint29_linear_1200_177)"/>
</g>
<defs>
<linearGradient id="paint0_linear_1200_177" x1="284.83" y1="223.06" x2="1286.23" y2="213.55" gradientUnits="userSpaceOnUse">
<stop offset="0.2" stop-color="#D6EFEC"/>
<stop offset="0.87" stop-color="#94D4D2"/>
</linearGradient>
<linearGradient id="paint1_linear_1200_177" x1="201.11" y1="-131" x2="880.14" y2="777.07" gradientUnits="userSpaceOnUse">
<stop offset="0.2" stop-color="#7BB3AE"/>
<stop offset="0.87" stop-color="#628C8B"/>
</linearGradient>
<linearGradient id="paint2_linear_1200_177" x1="320.29" y1="37.23" x2="715.33" y2="565.52" gradientUnits="userSpaceOnUse">
<stop offset="0.2" stop-color="#7BB3AE"/>
<stop offset="0.87" stop-color="#628C8B"/>
</linearGradient>
<linearGradient id="paint3_linear_1200_177" x1="-129.93" y1="-1250.72" x2="1818.09" y2="1354.37" gradientUnits="userSpaceOnUse">
<stop offset="0.2" stop-color="#7BB3AE"/>
<stop offset="0.87" stop-color="#628C8B"/>
</linearGradient>
<linearGradient id="paint4_linear_1200_177" x1="179.58" y1="-568.34" x2="1324" y2="962.1" gradientUnits="userSpaceOnUse">
<stop offset="0.2" stop-color="#7BB3AE"/>
<stop offset="0.87" stop-color="#628C8B"/>
</linearGradient>
<linearGradient id="paint5_linear_1200_177" x1="494.47" y1="-28.24" x2="900.36" y2="514.56" gradientUnits="userSpaceOnUse">
<stop offset="0.2" stop-color="#7BB3AE"/>
<stop offset="0.87" stop-color="#628C8B"/>
</linearGradient>
<linearGradient id="paint6_linear_1200_177" x1="575.17" y1="43.27" x2="770.43" y2="304.38" gradientUnits="userSpaceOnUse">
<stop offset="0.24" stop-color="#EBE69D"/>
<stop offset="0.86" stop-color="#B9DAFC" stop-opacity="0"/>
</linearGradient>
<linearGradient id="paint7_linear_1200_177" x1="563.22" y1="238.86" x2="641.67" y2="343.78" gradientUnits="userSpaceOnUse">
<stop offset="0.24" stop-color="#EBE69D"/>
<stop offset="0.86" stop-color="#B9DAFC" stop-opacity="0"/>
</linearGradient>
<linearGradient id="paint8_linear_1200_177" x1="708.94" y1="-53.85" x2="934.41" y2="247.67" gradientUnits="userSpaceOnUse">
<stop offset="0.24" stop-color="#EBE69D"/>
<stop offset="0.86" stop-color="#B9DAFC" stop-opacity="0"/>
</linearGradient>
<linearGradient id="paint9_linear_1200_177" x1="548.88" y1="225.29" x2="673.65" y2="392.14" gradientUnits="userSpaceOnUse">
<stop offset="0.24" stop-color="#EBE69D"/>
<stop offset="0.86" stop-color="#B9DAFC" stop-opacity="0"/>
</linearGradient>
<linearGradient id="paint10_linear_1200_177" x1="549.5" y1="136.55" x2="25.3001" y2="432.55" gradientUnits="userSpaceOnUse">
<stop offset="0.29" stop-color="#BBE3E2"/>
<stop offset="0.76" stop-color="#81BFC2"/>
</linearGradient>
<linearGradient id="paint11_linear_1200_177" x1="655.31" y1="-629.94" x2="-358.52" y2="829.51" gradientUnits="userSpaceOnUse">
<stop offset="0.29" stop-color="#74A6A5"/>
<stop offset="0.76" stop-color="#457D80"/>
</linearGradient>
<linearGradient id="paint12_linear_1200_177" x1="464.14" y1="-175.43" x2="-117.01" y2="661.17" gradientUnits="userSpaceOnUse">
<stop offset="0.29" stop-color="#74A6A5"/>
<stop offset="0.76" stop-color="#457D80"/>
</linearGradient>
<linearGradient id="paint13_linear_1200_177" x1="398.05" y1="-11.26" x2="82.2101" y2="443.4" gradientUnits="userSpaceOnUse">
<stop offset="0.29" stop-color="#74A6A5"/>
<stop offset="0.76" stop-color="#457D80"/>
</linearGradient>
<linearGradient id="paint14_linear_1200_177" x1="600.2" y1="-54.05" x2="87.5601" y2="683.91" gradientUnits="userSpaceOnUse">
<stop offset="0.29" stop-color="#74A6A5"/>
<stop offset="0.76" stop-color="#457D80"/>
</linearGradient>
<linearGradient id="paint15_linear_1200_177" x1="620.59" y1="164.84" x2="384.49" y2="504.72" gradientUnits="userSpaceOnUse">
<stop offset="0.29" stop-color="#74A6A5"/>
<stop offset="0.76" stop-color="#457D80"/>
</linearGradient>
<linearGradient id="paint16_linear_1200_177" x1="478.43" y1="52.15" x2="257.88" y2="369.65" gradientUnits="userSpaceOnUse">
<stop offset="0.24" stop-color="#E8E4AC"/>
<stop offset="0.86" stop-color="#ACCBEB" stop-opacity="0"/>
</linearGradient>
<linearGradient id="paint17_linear_1200_177" x1="460.92" y1="241.55" x2="317.27" y2="448.34" gradientUnits="userSpaceOnUse">
<stop offset="0.24" stop-color="#E8E4AC"/>
<stop offset="0.86" stop-color="#ACCBEB" stop-opacity="0"/>
</linearGradient>
<linearGradient id="paint18_linear_1200_177" x1="351.49" y1="127.41" x2="255.07" y2="266.22" gradientUnits="userSpaceOnUse">
<stop offset="0.24" stop-color="#E8E4AC"/>
<stop offset="0.86" stop-color="#ACCBEB" stop-opacity="0"/>
</linearGradient>
<linearGradient id="paint19_linear_1200_177" x1="69.5301" y1="381.5" x2="534.53" y2="381.5" gradientUnits="userSpaceOnUse">
<stop offset="0.15" stop-color="#52A5BA"/>
<stop offset="0.89" stop-color="#9ECFDD"/>
</linearGradient>
<linearGradient id="paint20_linear_1200_177" x1="401.67" y1="407.09" x2="400.51" y2="469.07" gradientUnits="userSpaceOnUse">
<stop offset="0.16" stop-color="#3B7585"/>
<stop offset="0.89" stop-color="#487987"/>
</linearGradient>
<linearGradient id="paint21_linear_1200_177" x1="430.02" y1="395.06" x2="429.37" y2="429.53" gradientUnits="userSpaceOnUse">
<stop offset="0.16" stop-color="#3B7585"/>
<stop offset="0.89" stop-color="#487987"/>
</linearGradient>
<linearGradient id="paint22_linear_1200_177" x1="381.59" y1="284.23" x2="376.63" y2="549.34" gradientUnits="userSpaceOnUse">
<stop offset="0.26" stop-color="#EDE485" stop-opacity="0.5"/>
<stop offset="0.29" stop-color="#DADE96" stop-opacity="0.6"/>
<stop offset="0.31" stop-color="#C6D8A7" stop-opacity="0.71"/>
<stop offset="0.34" stop-color="#B5D3B6" stop-opacity="0.8"/>
<stop offset="0.38" stop-color="#A7CEC2" stop-opacity="0.87"/>
<stop offset="0.41" stop-color="#9DCBCC" stop-opacity="0.93"/>
<stop offset="0.46" stop-color="#95C9D2" stop-opacity="0.97"/>
<stop offset="0.53" stop-color="#91C7D6" stop-opacity="0.99"/>
<stop offset="0.72" stop-color="#90C7D7"/>
</linearGradient>
<linearGradient id="paint23_linear_1200_177" x1="431.56" y1="376.11" x2="429.52" y2="485.06" gradientUnits="userSpaceOnUse">
<stop offset="0.26" stop-color="#EDE485" stop-opacity="0.5"/>
<stop offset="0.29" stop-color="#DADE96" stop-opacity="0.6"/>
<stop offset="0.31" stop-color="#C6D8A7" stop-opacity="0.71"/>
<stop offset="0.34" stop-color="#B5D3B6" stop-opacity="0.8"/>
<stop offset="0.38" stop-color="#A7CEC2" stop-opacity="0.87"/>
<stop offset="0.41" stop-color="#9DCBCC" stop-opacity="0.93"/>
<stop offset="0.46" stop-color="#95C9D2" stop-opacity="0.97"/>
<stop offset="0.53" stop-color="#91C7D6" stop-opacity="0.99"/>
<stop offset="0.72" stop-color="#90C7D7"/>
</linearGradient>
<linearGradient id="paint24_linear_1200_177" x1="390.71" y1="398.01" x2="388.24" y2="530.22" gradientUnits="userSpaceOnUse">
<stop offset="0.26" stop-color="#EDE485" stop-opacity="0.5"/>
<stop offset="0.29" stop-color="#DADE96" stop-opacity="0.6"/>
<stop offset="0.31" stop-color="#C6D8A7" stop-opacity="0.71"/>
<stop offset="0.34" stop-color="#B5D3B6" stop-opacity="0.8"/>
<stop offset="0.38" stop-color="#A7CEC2" stop-opacity="0.87"/>
<stop offset="0.41" stop-color="#9DCBCC" stop-opacity="0.93"/>
<stop offset="0.46" stop-color="#95C9D2" stop-opacity="0.97"/>
<stop offset="0.53" stop-color="#91C7D6" stop-opacity="0.99"/>
<stop offset="0.72" stop-color="#90C7D7"/>
</linearGradient>
<linearGradient id="paint25_linear_1200_177" x1="391.78" y1="392.22" x2="36.9302" y2="360.01" gradientUnits="userSpaceOnUse">
<stop offset="0.24" stop-color="#BAE8BE"/>
<stop offset="0.76" stop-color="#90BF9D"/>
</linearGradient>
<linearGradient id="paint26_linear_1200_177" x1="414.05" y1="272.68" x2="242.7" y2="421.43" gradientUnits="userSpaceOnUse">
<stop offset="0.49" stop-color="#EDE485" stop-opacity="0.5"/>
<stop offset="0.73" stop-color="#9EDDA6"/>
</linearGradient>
<linearGradient id="paint27_linear_1200_177" x1="366.09" y1="338.9" x2="263.19" y2="428.23" gradientUnits="userSpaceOnUse">
<stop offset="0.49" stop-color="#EDE485" stop-opacity="0.5"/>
<stop offset="0.73" stop-color="#9EDDA6"/>
</linearGradient>
<linearGradient id="paint28_linear_1200_177" x1="339.77" y1="371.66" x2="313.46" y2="394.5" gradientUnits="userSpaceOnUse">
<stop offset="0.49" stop-color="#EDE485" stop-opacity="0.5"/>
<stop offset="0.73" stop-color="#9EDDA6"/>
</linearGradient>
<linearGradient id="paint29_linear_1200_177" x1="402.41" y1="370.09" x2="274.79" y2="480.88" gradientUnits="userSpaceOnUse">
<stop offset="0.49" stop-color="#EDE485" stop-opacity="0.5"/>
<stop offset="0.73" stop-color="#9EDDA6"/>
</linearGradient>
<clipPath id="clip0_1200_177">
<rect width="1066.67" height="600" fill="white"/>
</clipPath>
</defs>
</svg>
