<svg width="1067" height="600" viewBox="0 0 1067 600" fill="none" xmlns="http://www.w3.org/2000/svg">
<g clip-path="url(#clip0_1200_177)">
<path d="M303.33 352C420.33 343.5 492.33 338.2 492.33 338C492.33 337.8 484.43 338 484.33 339C483.98 342.45 581.76 355.75 749.33 376L830.33 479C897.7 515.61 910.44 540.55 908.33 557C895.82 654.7 336.33 637.87 214.33 609C161 596.37 90.2101 557.48 38.9301 553.64C37.0801 553.51 33.5701 553.29 32.3301 551C23.0601 533.8 164.6 439.48 303.33 352Z" fill="url(#paint0_linear_1200_177)"/>
<path opacity="0.33" d="M339.33 508C407.8 504.86 458.22 505 489.33 505C598.12 504.93 662.33 502.51 662.33 503C662.33 504.18 290.4 513.33 290.33 511C290.31 510.25 329.16 508.47 339.33 508Z" fill="#FFF7A9"/>
<path opacity="0.22" d="M592.33 367C465.33 361.46 342.85 378.62 343.33 388C343.79 396.88 454.33 395.83 454.33 402C454.33 407.51 366.28 410.07 366.33 413C366.43 418.23 647.27 417.58 647.33 413C647.33 410 523.5 408.08 523.33 400C523.16 391.43 662.54 384.74 662.33 376C662.19 370.16 599.88 367.33 592.33 367Z" fill="#FFEF7B"/>
<path d="M427.33 474V536L310.33 541V470L427.33 474Z" fill="url(#paint1_linear_1200_177)"/>
<path d="M372.33 511L370.33 578L150.33 569L165.33 526L372.33 511Z" fill="url(#paint2_linear_1200_177)"/>
<path d="M553.33 452V548H773.33V449L553.33 452Z" fill="url(#paint3_linear_1200_177)"/>
<path d="M652.33 482V545H769.33V463L652.33 482Z" fill="url(#paint4_linear_1200_177)"/>
<path d="M691.33 532V578L879.33 567L893.33 523L691.33 532Z" fill="url(#paint5_linear_1200_177)"/>
<path d="M475.33 407V496H317.33V404L475.33 407Z" fill="url(#paint6_linear_1200_177)"/>
<path d="M470.33 427V506L341.33 485L344.33 424L470.33 427Z" fill="url(#paint7_linear_1200_177)"/>
<path d="M431.33 460C429.33 460 427.33 536 427.33 536L285.33 506L301.33 450L431.33 460Z" fill="url(#paint8_linear_1200_177)"/>
<path d="M467.33 389V484H689.48C691.76 448 694.043 412 696.33 376L467.33 389Z" fill="url(#paint9_linear_1200_177)"/>
<path opacity="0.36" d="M263.33 517C453.33 509.89 636.42 517.94 636.33 523C636.24 528.27 437.53 525.58 437.33 533C437.12 541.11 697.49 550.24 697.33 557C697.11 566.65 165.47 564.21 165.33 555C165.26 549.62 346.5 543.17 346.33 537C346.14 530.12 176.33 529.35 176.33 524C176.32 520.33 256.19 517.27 263.33 517Z" fill="#57A9BC"/>
<path opacity="0.47" d="M349.33 476C539.75 474.12 632.33 474.15 632.33 476C632.39 478.93 399.27 485 399.33 488C399.39 491 640.27 486.28 640.33 489C640.42 492.51 239.33 510.71 238.33 497C238 493.07 270.64 486.39 349.33 476Z" fill="#BBF0FC"/>
<path opacity="0.33" d="M184.33 579C283.64 563.61 354.68 573.24 355.33 568C356.18 561.15 234.77 545.47 235.33 538C236.47 523.11 722.33 544.43 722.33 556C722.33 563.8 472.48 563.09 472.33 573C472.2 581.79 668.45 587.6 668.33 594C668.13 604.61 128.06 609.65 127.33 592C127.16 587.86 156.74 583.27 184.33 579Z" fill="#8BD0EF"/>
<path opacity="0.21" d="M595.33 432C542 437.4 480.94 446.82 481.33 452C481.91 459.49 610.33 451.32 611.33 461C612.57 473 417.33 494.45 418.33 508C419.52 524.84 722.88 518.27 723.33 505C723.58 497.83 635.14 494.17 634.33 478C633.33 458.3 763.62 441.89 762.33 431C761.28 422.1 673.27 424.11 595.33 432Z" fill="#73CFEF"/>
<path opacity="0.53" d="M220.33 540.52C552.67 536.71 624.28 537.24 624.33 538.52C624.39 540.06 522.12 543.09 461.33 544.52C343.04 547.27 188.59 548.37 188.33 544.52C188.28 543.76 194 542.55 220.33 540.52Z" fill="#57A6CE"/>
<path opacity="0.53" d="M836.84 552.77C772.67 552.06 723.68 552.77 705.33 553C610.89 554.41 492 557.83 492 559.35C492 560.87 631.64 559.7 707.34 559C742.62 558.67 927.34 557 927.34 555C927.33 553.77 855.13 553 836.84 552.77Z" fill="#57A6CE"/>
<path opacity="0.64" d="M312.33 573C350.77 575.287 389.77 577.287 429.33 579C467.837 580.66 505.837 581.993 543.33 583L421.33 590L616.33 589C554.27 596.159 491.775 598.833 429.33 597C381.813 595.598 334.409 591.592 287.33 585L312.33 573Z" fill="#57A6CE"/>
<path opacity="0.53" d="M547.33 396C514.4 398.7 478.61 400.27 440.33 400C408.47 399.78 378.4 398.3 350.33 396H547.33Z" fill="#FFF8A4"/>
<path opacity="0.68" d="M700.33 395L491.33 406L670.33 407C564.01 417.51 538.33 420.51 538.33 421C538.41 421.81 610.11 414.95 716.33 410C735.94 409.09 752.41 408.44 764.33 408L700.33 395Z" fill="#FFF8A4"/>
<path opacity="0.46" d="M338.33 453C428.33 451.31 517.38 455.67 517.33 458C517.33 460 450.11 460.33 413.33 460C356.23 459.49 294.33 456.77 294.33 455C294.35 453.82 321.7 453.31 338.33 453Z" fill="#FFF8A4"/>
<path d="M269.33 279C263.67 312 258.003 345 252.33 378L300.33 435L427.33 474L318.33 487L372.33 511L329.33 530L218.33 540C175.504 564.556 127.601 578.927 78.3301 582C37.3444 584.462 -3.73278 579.03 -42.6699 566C-38.0033 442.333 -33.3366 318.667 -28.6699 195L269.33 279Z" fill="url(#paint10_linear_1200_177)"/>
<path d="M238.33 311L232.33 426L298.33 483L323.33 489L372.33 511L329.33 530L138.33 547C108.85 502.56 74.8901 434.5 77.3301 355C78.3301 323.71 84.3301 308.88 94.3301 299C120.55 273.08 177 278.18 238.33 311Z" fill="url(#paint11_linear_1200_177)"/>
<path d="M155.33 313C157.997 330.667 160.663 348.333 163.33 366L154.33 438L208.33 521L146.33 477L89.3301 330L104.33 318L155.33 313Z" fill="url(#paint12_linear_1200_177)"/>
<path d="M121.33 345C131.003 381 140.67 417 150.33 453L224.33 540L137.33 596L-42.6699 566L-27.6699 326L121.33 345Z" fill="url(#paint13_linear_1200_177)"/>
<path d="M171.33 478L230.33 489L325.33 530L224.33 540C206.67 519.333 189.003 498.667 171.33 478Z" fill="url(#paint14_linear_1200_177)"/>
<path d="M36.3301 325L51.3301 414L39.3301 502L74.3301 557L-35.6699 552C-28.3366 477.333 -21.0033 402.667 -13.6699 328L36.3301 325Z" fill="url(#paint15_linear_1200_177)"/>
<path d="M2.33008 535L62.3301 460L86.3301 469L122.33 481L161.33 554L2.33008 535Z" fill="url(#paint16_linear_1200_177)"/>
<path d="M267.33 456L298.33 483L318.33 487L423.33 474L339.33 466L267.33 456Z" fill="url(#paint17_linear_1200_177)"/>
<path d="M121.33 345C131.67 382.673 142.003 420.34 152.33 458L219.33 535L109.33 511C97.6701 469.667 86.0034 428.333 74.3301 387L53.3301 337L121.33 345Z" fill="url(#paint18_linear_1200_177)"/>
<path d="M238.33 311L232.33 426L292.33 482L323.33 489L300.33 505L218.33 460C214.67 424 211.003 388 207.33 352C200.997 340 194.663 328 188.33 316L238.33 311Z" fill="url(#paint19_linear_1200_177)"/>
<path d="M268.33 287C262.997 317.333 257.663 347.667 252.33 378L300.33 435L333.33 445L361.33 460H281.33L233.33 399C234.997 369.667 236.663 340.333 238.33 311L224.33 293L240.33 287H268.33Z" fill="url(#paint20_linear_1200_177)"/>
<path d="M-40.6699 196C115.05 220.15 269.33 246 268.33 254C267.86 257.8 232.72 256.82 232.33 262C231.81 268.91 293.8 276.72 293.33 283C292.77 290.48 203.98 287.79 203.33 296C202.92 301.24 238.72 306.28 238.33 311C237.57 320.27 98.5001 311.48 96.3301 327C95.3301 333.92 122.23 341.31 121.33 345C120.22 349.59 77.0401 344.67 -45.6699 321C-43.9966 279.333 -42.3299 237.667 -40.6699 196Z" fill="#9EDDA6"/>
<path d="M-41.67 222C-8.66996 247.51 27.42 243.35 78.33 248C124.65 252.23 172.62 262.78 172.33 268C171.89 276.09 55.42 273.42 55.33 277C55.21 281.91 280.63 292.57 281.33 284C281.74 279 206.73 270.27 207.33 262C207.72 256.73 242.83 258 243.33 253C243.94 246.93 193.57 237 118.33 224C-27.5699 198.71 -52.33 198.76 -54.67 206C-56.2 210.76 -47.65 217.37 -41.67 222Z" fill="url(#paint21_linear_1200_177)"/>
<path d="M-75.6699 256C28.7101 279.42 102.39 298.08 101.33 304C100.16 310.55 7.89008 297.7 5.33008 310C3.64008 318.14 42.5701 330.6 41.3301 335C40.0901 339.4 -1.33992 333.47 -125.67 305L-75.6699 256Z" fill="url(#paint22_linear_1200_177)"/>
<path d="M-40.6699 208C67.0101 229 135.68 239.4 179.33 245C182.22 245.37 227.58 251.19 227.33 255C227.1 258.54 182.88 256.2 182.33 261C181.47 268.64 291.96 289.34 293.33 284C293.64 282.81 288.82 280.3 286.33 279C280.52 276 276.01 275.32 268.33 274C253.91 271.51 247.27 269.91 240.33 267C235.4 264.93 232.23 263.58 232.33 262C232.67 256.69 267.9 257.23 268.33 254C269.21 247.43 126.12 222.68 -40.6699 196V208Z" fill="url(#paint23_linear_1200_177)"/>
<path d="M209.33 293C209.27 290.92 184.1 288.61 183.33 292C182.44 295.94 215.33 304.07 214.33 310C213.57 314.68 192.33 314.45 192.33 315C192.33 315.81 238.01 315.63 238.33 311C238.41 309.84 234.06 308.21 225.33 305C211.33 299.83 203.18 298.05 203.33 296C203.46 294.27 209.37 294 209.33 293Z" fill="url(#paint24_linear_1200_177)"/>
<path d="M97.3301 329C86.7101 320.4 69.9401 317.59 69.3301 319C68.4301 321.11 102.9 334.76 101.33 340C100.24 343.67 81.3901 341.2 50.3301 337C21.4701 333.1 3.42012 329.57 3.33012 330C3.24012 330.43 24.6001 335.71 51.3301 340C89.9901 346.2 121.95 347.51 122.33 345C122.42 344.42 120.39 343.28 116.33 341C113.33 339.3 110.95 338.28 110.33 338C104.34 335.33 100 331.13 97.3301 329Z" fill="url(#paint25_linear_1200_177)"/>
<path d="M640.33 264C647.997 287 655.663 310 663.33 333C657.67 352 652.003 371 646.33 390L553.33 452L605.33 466L677.33 457L651.33 483L747.33 479L691.33 532L932.33 547L1086.33 511L1095.33 282L640.33 264Z" fill="url(#paint26_linear_1200_177)"/>
<path opacity="0.43" d="M729.33 310C727.997 339 726.663 368 725.33 397L693.33 426C687.997 436.333 682.663 446.667 677.33 457L651.33 483L748.33 479L846.33 471C875.663 437.667 904.997 404.333 934.33 371L940.33 276L729.33 310Z" fill="url(#paint27_linear_1200_177)"/>
<path d="M886.33 314L820.33 440L755.33 471L691.33 532L1088.33 564C1086 476 1083.67 388 1081.33 300L1053.33 288L886.33 314Z" fill="url(#paint28_linear_1200_177)"/>
<path d="M605.33 466L718.33 403L691.33 428C686.663 437.667 681.997 447.333 677.33 457L605.33 466Z" fill="url(#paint29_linear_1200_177)"/>
<path opacity="0.51" d="M687.33 482L772.33 444L820.33 440L753.33 472L747.33 479L687.33 482Z" fill="url(#paint30_linear_1200_177)"/>
<path d="M829.33 294C823.997 318.667 818.663 343.333 813.33 368L792.33 352C790.67 376 789.003 400 787.33 424L819.33 438C827.997 423.027 836.663 407.693 845.33 392C859.89 365.54 873.557 339.54 886.33 314L918.33 289L829.33 294Z" fill="url(#paint31_linear_1200_177)"/>
<path d="M978.33 312C969.997 347.333 961.663 382.667 953.33 418C943.67 406.333 934.003 394.667 924.33 383L839.33 544L1066.33 535V307L978.33 312Z" fill="url(#paint32_linear_1200_177)"/>
<path d="M886.33 314L1002.33 322L872.33 501L756.33 487L720.33 505L754.33 472L820.33 439L886.33 314Z" fill="url(#paint33_linear_1200_177)"/>
<path d="M729.33 310C727.997 339 726.663 368 725.33 397L693.33 426C687.997 436.333 682.663 446.667 677.33 457L714.33 453L735.33 476C745.66 456.3 757.27 435.89 770.33 415C797.286 371.92 827.72 331.117 861.33 293L729.33 310Z" fill="url(#paint34_linear_1200_177)"/>
<path d="M646.33 284C651.997 300.333 657.663 316.667 663.33 333C657.67 352 652.003 371 646.33 390L553.33 452L636.33 438L706.33 367C709.663 339.333 712.997 311.667 716.33 284H646.33Z" fill="url(#paint35_linear_1200_177)"/>
<path d="M691.33 532L745.33 516L860.33 546C848.67 544.993 837.003 543.993 825.33 543C780.67 539.213 736.003 535.547 691.33 532Z" fill="url(#paint36_linear_1200_177)"/>
<path opacity="0.58" d="M916.33 484L931.33 499L980.33 440C980.67 467 981.003 494 981.33 521L894.33 550L816.33 542L916.33 484Z" fill="url(#paint37_linear_1200_177)"/>
<path d="M1086.33 196C970.63 206.08 850.05 221.62 725.33 244C700.39 248.48 675.723 253.147 651.33 258C643.05 260.44 611.4 270 612.33 277C613.33 284.67 653.49 285 660.33 285C638 292.37 629.93 296.26 630.33 298C631.82 304.44 749.33 279.78 752.33 291C753.78 296.36 728.02 306 729.33 310C733.33 322.26 909.71 281.13 913.33 294C914.83 299.31 885.12 308 886.33 314C889.73 330.85 1134.65 320.79 1145.33 263C1148.34 246.73 1133.06 225.12 1086.33 196Z" fill="#9EDDA6"/>
<path d="M721.33 251C721.33 251 685.42 250.13 640.33 264C625.63 268.52 619.14 271.91 619.33 275C619.7 280.81 643.53 284 656.33 285C674.097 286.373 691.97 285.024 709.33 281C801.75 257.83 847.96 246.25 847.33 243C846.26 237.45 799.91 252.89 721.33 251Z" fill="url(#paint38_linear_1200_177)"/>
<path d="M1071.33 282C970.71 291.6 929.14 297.61 929.33 301C929.57 305.18 993.17 303.9 993.33 308C993.52 312.81 906.18 318.31 906.33 321C906.45 323.05 957.59 324.5 1017.33 316C1039.55 312.842 1061.58 308.502 1083.33 303L1071.33 282Z" fill="url(#paint39_linear_1200_177)"/>
<path d="M759.33 242C744.89 246.1 733.03 249.52 733.33 252C734.2 259 830.57 249.86 831.33 256C831.93 260.81 773.19 271.24 773.33 272C773.83 274.71 1025.75 240.74 1024.33 224C1024.07 220.86 1015.02 219.46 998.33 217C948.89 209.7 920.84 216.1 824.33 228C824.33 228 796.63 231.42 759.33 242Z" fill="url(#paint40_linear_1200_177)"/>
<path d="M979.33 255C943.91 256.54 912.39 262.7 849.33 275C798.39 284.94 795.23 287.28 795.33 288C795.74 290.77 845.97 284.45 846.33 287C846.94 291.25 732.96 309.56 733.33 312C733.68 314.25 823.27 302.45 902.33 291C1012.56 275 1067.74 266.93 1067.33 261C1067 255.36 1016.45 253.38 979.33 255Z" fill="url(#paint41_linear_1200_177)"/>
<path d="M697.25 282.88C671.82 286.04 649.25 290.11 649.39 291.48C649.5 292.64 665.88 291.35 665.98 292.48C666.12 294.13 632.27 298.48 632.33 299.06C632.39 299.64 654.25 297.71 686.33 293.49C717.51 289.4 777.58 280.49 777.33 277.81C777.1 275.52 733.64 278.35 697.25 282.88Z" fill="url(#paint42_linear_1200_177)"/>
<path d="M766.33 285C756.8 291.21 750.94 294.83 747.33 297C740.7 301 737.33 303 737.33 303C735.536 303.771 733.854 304.78 732.33 306C731.554 306.548 730.878 307.224 730.33 308C729.905 308.617 729.568 309.29 729.33 310C730.43 309.31 732.16 308.23 734.33 307C738.223 304.792 742.228 302.79 746.33 301C750.56 299.11 757 295 766.33 285Z" fill="url(#paint43_linear_1200_177)"/>
<path d="M663.33 285C645.94 283.14 625.58 280 625.33 275C625.09 270.17 643.49 265.54 654.33 263C725.71 246.28 807.78 241.11 844.33 237C884.953 232.34 924.891 222.943 963.33 209C930.79 212.57 876.08 219 818.33 228C780.95 233.84 741.64 240.87 735.33 242C719.93 244.76 706.93 247.19 697.33 249C697.33 249 687.66 250.17 672.33 253C650.91 256.95 641.57 260 634.33 263C625.59 266.6 611.62 272.34 612.33 277C613.33 283.39 641.43 284.68 648.33 285C654.62 285.29 659.83 285.16 663.33 285Z" fill="url(#paint44_linear_1200_177)"/>
</g>
<defs>
<linearGradient id="paint0_linear_1200_177" x1="470.22" y1="221.81" x2="470.22" y2="758.49" gradientUnits="userSpaceOnUse">
<stop offset="0.09" stop-color="#FFEC9C"/>
<stop offset="0.18" stop-color="#F0E7A6"/>
<stop offset="0.36" stop-color="#C8DBC2"/>
<stop offset="0.6" stop-color="#88C7EE"/>
<stop offset="0.66" stop-color="#78C2F9"/>
</linearGradient>
<linearGradient id="paint1_linear_1200_177" x1="368.8" y1="455.52" x2="368.87" y2="572.52" gradientUnits="userSpaceOnUse">
<stop stop-color="#5381A0"/>
<stop offset="0.78" stop-color="#78C2F9" stop-opacity="0"/>
</linearGradient>
<linearGradient id="paint2_linear_1200_177" x1="261.31" y1="497.43" x2="261.37" y2="607.83" gradientUnits="userSpaceOnUse">
<stop stop-color="#5381A0"/>
<stop offset="0.78" stop-color="#78C2F9" stop-opacity="0"/>
</linearGradient>
<linearGradient id="paint3_linear_1200_177" x1="663.3" y1="428.91" x2="663.38" y2="592.06" gradientUnits="userSpaceOnUse">
<stop stop-color="#5381A0"/>
<stop offset="0.78" stop-color="#78C2F9" stop-opacity="0"/>
</linearGradient>
<linearGradient id="paint4_linear_1200_177" x1="710.8" y1="434.79" x2="710.87" y2="569.92" gradientUnits="userSpaceOnUse">
<stop stop-color="#5381A0"/>
<stop offset="0.78" stop-color="#78C2F9" stop-opacity="0"/>
</linearGradient>
<linearGradient id="paint5_linear_1200_177" x1="792.3" y1="484.52" x2="792.36" y2="605.57" gradientUnits="userSpaceOnUse">
<stop stop-color="#5381A0"/>
<stop offset="0.78" stop-color="#78C2F9" stop-opacity="0"/>
</linearGradient>
<linearGradient id="paint6_linear_1200_177" x1="396.27" y1="340.13" x2="396.36" y2="491.88" gradientUnits="userSpaceOnUse">
<stop stop-color="#2F6573"/>
<stop offset="0.78" stop-color="#78C2F9" stop-opacity="0"/>
</linearGradient>
<linearGradient id="paint7_linear_1200_177" x1="405.78" y1="349.31" x2="405.85" y2="484.55" gradientUnits="userSpaceOnUse">
<stop stop-color="#2F6573"/>
<stop offset="0.78" stop-color="#78C2F9" stop-opacity="0"/>
</linearGradient>
<linearGradient id="paint8_linear_1200_177" x1="358.27" y1="371.67" x2="358.35" y2="513.5" gradientUnits="userSpaceOnUse">
<stop stop-color="#2F6573"/>
<stop offset="0.78" stop-color="#78C2F9" stop-opacity="0"/>
</linearGradient>
<linearGradient id="paint9_linear_1200_177" x1="581.75" y1="277.82" x2="581.85" y2="455.78" gradientUnits="userSpaceOnUse">
<stop stop-color="#D6EFEC"/>
<stop offset="0.78" stop-color="#78C2F9" stop-opacity="0"/>
</linearGradient>
<linearGradient id="paint10_linear_1200_177" x1="393.39" y1="140.44" x2="-122.12" y2="655.95" gradientUnits="userSpaceOnUse">
<stop offset="0.09" stop-color="#CCDD9E"/>
<stop offset="0.49" stop-color="#6493B3"/>
<stop offset="0.81" stop-color="#0A2D52"/>
</linearGradient>
<linearGradient id="paint11_linear_1200_177" x1="428.8" y1="209.53" x2="-13.63" y2="651.96" gradientUnits="userSpaceOnUse">
<stop offset="0.24" stop-color="#CCDD9E"/>
<stop offset="0.54" stop-color="#6493B3"/>
<stop offset="0.87" stop-color="#0A2D52"/>
</linearGradient>
<linearGradient id="paint12_linear_1200_177" x1="250.37" y1="323.97" x2="21.0801" y2="553.25" gradientUnits="userSpaceOnUse">
<stop offset="0.21" stop-color="#6493B3" stop-opacity="0.1"/>
<stop offset="0.77" stop-color="#0A2D52"/>
</linearGradient>
<linearGradient id="paint13_linear_1200_177" x1="264.4" y1="266.93" x2="-66.9399" y2="598.27" gradientUnits="userSpaceOnUse">
<stop offset="0.16" stop-color="#CCDD9E"/>
<stop offset="0.54" stop-color="#6493B3"/>
<stop offset="0.87" stop-color="#0A2D52"/>
</linearGradient>
<linearGradient id="paint14_linear_1200_177" x1="309.97" y1="442.37" x2="74.7601" y2="677.58" gradientUnits="userSpaceOnUse">
<stop offset="0.21" stop-color="#6493B3"/>
<stop offset="0.82" stop-color="#0A2D52"/>
</linearGradient>
<linearGradient id="paint15_linear_1200_177" x1="189.98" y1="282.85" x2="-206.3" y2="679.13" gradientUnits="userSpaceOnUse">
<stop offset="0.21" stop-color="#6493B3" stop-opacity="0.1"/>
<stop offset="0.77" stop-color="#0A2D52"/>
</linearGradient>
<linearGradient id="paint16_linear_1200_177" x1="187.05" y1="431.78" x2="-43.5599" y2="662.39" gradientUnits="userSpaceOnUse">
<stop offset="0.21" stop-color="#6493B3" stop-opacity="0.1"/>
<stop offset="0.77" stop-color="#0A2D52"/>
</linearGradient>
<linearGradient id="paint17_linear_1200_177" x1="383.29" y1="427.04" x2="200.39" y2="609.94" gradientUnits="userSpaceOnUse">
<stop offset="0.21" stop-color="#6493B3" stop-opacity="0.1"/>
<stop offset="0.77" stop-color="#0A2D52"/>
</linearGradient>
<linearGradient id="paint18_linear_1200_177" x1="268.84" y1="303.49" x2="34.4601" y2="537.88" gradientUnits="userSpaceOnUse">
<stop offset="0.24" stop-color="#E8E4AC"/>
<stop offset="0.86" stop-color="#4172A3" stop-opacity="0"/>
</linearGradient>
<linearGradient id="paint19_linear_1200_177" x1="361.2" y1="297.13" x2="138.67" y2="519.66" gradientUnits="userSpaceOnUse">
<stop offset="0.24" stop-color="#E8E4AC"/>
<stop offset="0.86" stop-color="#4172A3" stop-opacity="0"/>
</linearGradient>
<linearGradient id="paint20_linear_1200_177" x1="385.86" y1="283.48" x2="175.18" y2="494.16" gradientUnits="userSpaceOnUse">
<stop offset="0.24" stop-color="#E8E4AC"/>
<stop offset="0.86" stop-color="#4172A3" stop-opacity="0"/>
</linearGradient>
<linearGradient id="paint21_linear_1200_177" x1="-38.33" y1="238.67" x2="310.35" y2="255.73" gradientUnits="userSpaceOnUse">
<stop offset="0.22" stop-color="#88C979" stop-opacity="0.7"/>
<stop offset="0.73" stop-color="#9EDDA6"/>
</linearGradient>
<linearGradient id="paint22_linear_1200_177" x1="134.52" y1="104.78" x2="-77.9299" y2="394.13" gradientUnits="userSpaceOnUse">
<stop offset="0.22" stop-color="#88C979" stop-opacity="0.7"/>
<stop offset="0.73" stop-color="#9EDDA6"/>
</linearGradient>
<linearGradient id="paint23_linear_1200_177" x1="287.6" y1="-39.59" x2="53.6601" y2="366.01" gradientUnits="userSpaceOnUse">
<stop offset="0.49" stop-color="#EDE485" stop-opacity="0.5"/>
<stop offset="0.73" stop-color="#9EDDA6"/>
</linearGradient>
<linearGradient id="paint24_linear_1200_177" x1="261.03" y1="214.5" x2="183.04" y2="349.74" gradientUnits="userSpaceOnUse">
<stop offset="0.49" stop-color="#EDE485" stop-opacity="0.5"/>
<stop offset="0.73" stop-color="#9EDDA6"/>
</linearGradient>
<linearGradient id="paint25_linear_1200_177" x1="130.63" y1="219.97" x2="32.4001" y2="390.3" gradientUnits="userSpaceOnUse">
<stop offset="0.49" stop-color="#EDE485" stop-opacity="0.5"/>
<stop offset="0.73" stop-color="#9EDDA6"/>
</linearGradient>
<linearGradient id="paint26_linear_1200_177" x1="437.16" y1="74.99" x2="1085.93" y2="564.29" gradientUnits="userSpaceOnUse">
<stop offset="0.03" stop-color="#CCDD9E"/>
<stop offset="0.44" stop-color="#6493B3"/>
<stop offset="0.96" stop-color="#0A2D52"/>
</linearGradient>
<linearGradient id="paint27_linear_1200_177" x1="611.71" y1="210.57" x2="962.9" y2="532.79" gradientUnits="userSpaceOnUse">
<stop offset="0.11" stop-color="#CCDD9E"/>
<stop offset="0.49" stop-color="#6493B3"/>
<stop offset="0.81" stop-color="#0A2D52"/>
</linearGradient>
<linearGradient id="paint28_linear_1200_177" x1="713.16" y1="94.85" x2="1018.58" y2="661.25" gradientUnits="userSpaceOnUse">
<stop offset="0.24" stop-color="#CCDD9E"/>
<stop offset="0.57" stop-color="#6493B3"/>
<stop offset="0.81" stop-color="#0A2D52"/>
</linearGradient>
<linearGradient id="paint29_linear_1200_177" x1="740.8" y1="486.91" x2="456.94" y2="298.5" gradientUnits="userSpaceOnUse">
<stop offset="0.15" stop-color="#6493B3"/>
<stop offset="0.81" stop-color="#0A2D52"/>
</linearGradient>
<linearGradient id="paint30_linear_1200_177" x1="851.65" y1="566.89" x2="629.64" y2="326.56" gradientUnits="userSpaceOnUse">
<stop offset="0.15" stop-color="#6493B3" stop-opacity="0.5"/>
<stop offset="0.81" stop-color="#0A2D52"/>
</linearGradient>
<linearGradient id="paint31_linear_1200_177" x1="1007.46" y1="523.89" x2="637.48" y2="123.37" gradientUnits="userSpaceOnUse">
<stop offset="0.15" stop-color="#6493B3" stop-opacity="0.5"/>
<stop offset="0.81" stop-color="#0A2D52"/>
</linearGradient>
<linearGradient id="paint32_linear_1200_177" x1="1082.9" y1="417.64" x2="602.5" y2="464.1" gradientUnits="userSpaceOnUse">
<stop offset="0.15" stop-color="#6493B3" stop-opacity="0.5"/>
<stop offset="0.81" stop-color="#0A2D52"/>
</linearGradient>
<linearGradient id="paint33_linear_1200_177" x1="750.58" y1="313.13" x2="938.55" y2="483.48" gradientUnits="userSpaceOnUse">
<stop offset="0.24" stop-color="#E8E4AC"/>
<stop offset="0.86" stop-color="#4172A3" stop-opacity="0"/>
</linearGradient>
<linearGradient id="paint34_linear_1200_177" x1="639.59" y1="257.42" x2="828.73" y2="428.83" gradientUnits="userSpaceOnUse">
<stop offset="0.24" stop-color="#E8E4AC"/>
<stop offset="0.86" stop-color="#4172A3" stop-opacity="0"/>
</linearGradient>
<linearGradient id="paint35_linear_1200_177" x1="548.1" y1="289.4" x2="711.59" y2="437.56" gradientUnits="userSpaceOnUse">
<stop offset="0.24" stop-color="#E8E4AC"/>
<stop offset="0.86" stop-color="#4172A3" stop-opacity="0"/>
</linearGradient>
<linearGradient id="paint36_linear_1200_177" x1="706.04" y1="474.96" x2="845.76" y2="603.16" gradientUnits="userSpaceOnUse">
<stop offset="0.15" stop-color="#6493B3"/>
<stop offset="0.81" stop-color="#0A2D52"/>
</linearGradient>
<linearGradient id="paint37_linear_1200_177" x1="898.83" y1="401.56" x2="898.83" y2="597.07" gradientUnits="userSpaceOnUse">
<stop offset="0.16" stop-color="#6493B3" stop-opacity="0"/>
<stop offset="0.89" stop-color="#0A2D52"/>
</linearGradient>
<linearGradient id="paint38_linear_1200_177" x1="607.71" y1="130.1" x2="763.88" y2="290.75" gradientUnits="userSpaceOnUse">
<stop offset="0.22" stop-color="#88C979" stop-opacity="0.7"/>
<stop offset="0.73" stop-color="#9EDDA6"/>
</linearGradient>
<linearGradient id="paint39_linear_1200_177" x1="896.04" y1="206.07" x2="1021.91" y2="335.56" gradientUnits="userSpaceOnUse">
<stop offset="0.22" stop-color="#88C979" stop-opacity="0.7"/>
<stop offset="0.73" stop-color="#9EDDA6"/>
</linearGradient>
<linearGradient id="paint40_linear_1200_177" x1="983.22" y1="279.78" x2="711.64" y2="175.23" gradientUnits="userSpaceOnUse">
<stop offset="0.22" stop-color="#88C979" stop-opacity="0.7"/>
<stop offset="0.73" stop-color="#9EDDA6"/>
</linearGradient>
<linearGradient id="paint41_linear_1200_177" x1="733.33" y1="283.37" x2="1067.34" y2="283.37" gradientUnits="userSpaceOnUse">
<stop offset="0.22" stop-color="#88C979" stop-opacity="0.7"/>
<stop offset="0.73" stop-color="#9EDDA6"/>
</linearGradient>
<linearGradient id="paint42_linear_1200_177" x1="632.33" y1="288.07" x2="777.33" y2="288.07" gradientUnits="userSpaceOnUse">
<stop offset="0.22" stop-color="#88C979" stop-opacity="0.7"/>
<stop offset="0.73" stop-color="#9EDDA6"/>
</linearGradient>
<linearGradient id="paint43_linear_1200_177" x1="741.1" y1="284.1" x2="751.88" y2="305.55" gradientUnits="userSpaceOnUse">
<stop offset="0.49" stop-color="#EDE485" stop-opacity="0.5"/>
<stop offset="0.73" stop-color="#9EDDA6"/>
</linearGradient>
<linearGradient id="paint44_linear_1200_177" x1="669.27" y1="7.16001" x2="857.81" y2="382.4" gradientUnits="userSpaceOnUse">
<stop offset="0.49" stop-color="#EDE485" stop-opacity="0.5"/>
<stop offset="0.73" stop-color="#9EDDA6"/>
</linearGradient>
<clipPath id="clip0_1200_177">
<rect width="1066.67" height="600" fill="white"/>
</clipPath>
</defs>
</svg>
