<svg width="1440" height="561" viewBox="0 0 1440 561" fill="none" xmlns="http://www.w3.org/2000/svg">
<path d="M-116.022 552L37.0727 406.5C174.858 354.75 273.845 296.85 340.261 252C379.736 225.345 434.355 185.295 523.375 120C576.733 80.865 620.71 48.135 650.954 25.5L683.975 28.5L719.997 12L771.029 24L816.057 0L910.616 100.5L1318.87 373.5L1557.52 553.5L-116.022 552Z" fill="url(#paint0_linear_1503_268)"/>
<path opacity="0.54" d="M542.887 106.5C521.754 167.385 523.675 186.12 530.879 190.5C545.889 199.62 588.485 148.98 602.924 159C614.932 167.355 594.984 209.13 604.425 214.5C616.793 221.535 652.08 150.615 692.98 154.5C724.5 157.5 745.198 203.355 754.518 198C761.198 194.175 750.571 170.7 759.021 165C765.941 160.335 778.683 172.185 796.545 181.5C830.826 199.365 875.584 203.505 883.599 190.5C891.614 177.495 858.083 153.21 865.587 136.5C872.462 121.05 910 121.77 951.141 127.5L910.615 100.5L816.057 0L769.528 24L719.997 12L683.975 28.5L650.954 25.5L542.887 106.5Z" fill="#FFFBF3"/>
<path opacity="0.13" d="M650.954 25.5C658.959 33.5 666.964 41.5 674.969 49.5C680.102 61.97 683.604 67.97 685.476 67.5C688.067 66.85 687.567 53.85 683.975 28.5L650.954 25.5Z" fill="url(#paint1_linear_1503_268)"/>
<path opacity="0.07" d="M718.496 13.5L736.507 37.5L757.52 70.5C761.523 55 765.525 39.5 769.528 24L718.496 13.5Z" fill="url(#paint2_linear_1503_268)"/>
<path opacity="0.1" d="M816.057 0C826.751 27.4867 841.416 53.2601 859.584 76.5C875.178 96.375 893.325 114.24 937.632 147C1014.37 203.73 1073.45 234.075 1071.22 238.5C1069.13 242.655 1016.73 217.305 1014.18 222C1011.06 227.79 1087.26 272.895 1186.79 337.5C1290.79 405 1291.1 409.98 1348.89 445.5C1419.17 488.589 1492.39 526.683 1568.02 559.5C1546.46 544.14 1513.99 520.86 1474.97 492C1392.41 430.98 1382.28 420.57 1327.87 381C1292.81 355.5 1246.96 324.99 1155.27 264C1110.24 234 1065.36 203.79 1020.18 174C955.643 131.475 932.889 117 901.61 90C870.242 62.8406 841.59 32.699 816.057 0V0Z" fill="url(#paint3_linear_1503_268)"/>
<path opacity="0.08" d="M682.474 295.5C678.631 311.745 673.588 334.875 668.965 363C664.462 390.525 660.635 421.035 662.962 421.5C665.288 421.965 672.658 386.475 676.47 387C682.954 387.9 670.796 491.445 674.969 492C678.361 492.45 692.215 425.235 697.483 348C697.918 341.61 703.322 260.46 695.982 259.5C692.305 259.02 686.616 279 682.474 295.5Z" fill="url(#paint4_linear_1503_268)"/>
<path opacity="0.07" d="M622.436 207C622.436 207 634.023 193.785 649.453 174C677.04 138.66 686.331 111 689.978 112.5C692.83 113.61 689.378 131.25 683.975 145.5C674.834 169.68 659.885 184.71 649.453 195C629.776 214.41 607.427 228.225 605.926 226.5C605.146 225.57 610.669 220.5 622.436 207Z" fill="url(#paint5_linear_1503_268)"/>
<path opacity="0.12" d="M744.012 135C745.27 156.313 748.792 177.431 754.518 198C765.614 237.35 784.498 274.076 810.053 306L783.036 231C798.686 246.78 807.691 253.78 810.053 252C814.816 248.42 792.802 209.42 744.012 135Z" fill="url(#paint6_linear_1503_268)"/>
<path opacity="0.15" d="M847.576 310.5C891.103 412.815 905.212 440.43 907.614 439.5C910.615 438.36 894.105 394.365 900.109 391.5C910.615 386.505 976.837 512.775 985.662 508.5C989.204 506.79 982.09 484.905 976.657 469.5L1071.22 553.5C1020.47 493.17 979.583 443.13 951.141 408C891.839 334.71 850.683 281.655 843.073 286.5C839.846 288.555 843.674 300.435 847.576 310.5Z" fill="url(#paint7_linear_1503_268)"/>
<path opacity="0.17" d="M925.625 244.5C944.906 279.539 965.946 313.583 988.664 346.5C1041.02 422.26 1101.96 491.72 1170.28 553.5H1345.89L1131.25 393L1177.78 477L925.625 244.5Z" fill="url(#paint8_linear_1503_268)"/>
<path d="M32.5699 411C52.5323 402.795 79.9243 391.2 112.119 376.5C142.363 362.685 203.781 334.5 266.715 298.5C314.55 271.095 360.298 238.365 449.829 174C490.76 144.585 538.264 109.905 590.917 70.5C555.405 104.805 514.97 140.79 469.341 177C424.085 212.919 376.992 246.464 328.254 277.5L436.321 246L56.5848 424.5L-116.022 561L32.5699 411Z" fill="url(#paint9_linear_1503_268)"/>
<path d="M487.353 229.5C453.332 255.94 419.31 282.44 385.289 309C359.743 329 334.228 349 308.742 369C333.152 356.003 356.713 341.474 379.286 325.5C418.73 297.568 454.972 265.374 487.353 229.5V229.5Z" fill="url(#paint10_linear_1503_268)"/>
<path d="M241.2 442.5C256.629 434.28 279.744 421.59 307.241 405C362.025 372 386.79 352.08 389.792 355.5C395.045 361.5 327.939 431.28 325.252 429C324.396 428.265 329.905 419.925 344.764 400.5L241.2 442.5Z" fill="url(#paint11_linear_1503_268)"/>
<path opacity="0.62" d="M571.405 222C564.966 234.27 555.015 252.225 541.386 273C506.084 326.82 472.148 359.85 473.844 361.5C474.745 362.37 485.206 354.18 529.379 312C525.797 330.54 524.796 340.04 526.377 340.5C529.769 341.5 544.778 302 571.405 222Z" fill="url(#paint12_linear_1503_268)"/>
<path opacity="0.4" d="M256.209 543C268.592 531.54 287.413 514.92 311.743 496.5C331.886 481.26 340.772 476.175 365.777 459C418.955 422.49 454.842 393.255 455.833 394.5C457.064 396 402.34 437.895 406.302 444C410.07 449.805 468.591 417.135 469.341 418.5C470.347 420.255 373.927 475.89 256.209 543Z" fill="url(#paint13_linear_1503_268)"/>
<defs>
<linearGradient id="paint0_linear_1503_268" x1="-33.0509" y1="-117.105" x2="1275.52" y2="1047.19" gradientUnits="userSpaceOnUse">
<stop offset="0.06" stop-color="#F5D389"/>
<stop offset="0.15" stop-color="#E4D69F"/>
<stop offset="0.36" stop-color="#C1DCCC"/>
<stop offset="0.46" stop-color="#B4DEDD"/>
<stop offset="0.51" stop-color="#A5D3D6"/>
<stop offset="0.71" stop-color="#71ACBF"/>
<stop offset="0.86" stop-color="#5093B0"/>
<stop offset="0.94" stop-color="#448AAB"/>
</linearGradient>
<linearGradient id="paint1_linear_1503_268" x1="582.602" y1="-111.255" x2="939.471" y2="470.823" gradientUnits="userSpaceOnUse">
<stop offset="0.46" stop-color="#437373"/>
<stop offset="0.6" stop-color="#3C6D75"/>
<stop offset="0.93" stop-color="#306178"/>
</linearGradient>
<linearGradient id="paint2_linear_1503_268" x1="632.673" y1="-162.615" x2="1089.56" y2="582.568" gradientUnits="userSpaceOnUse">
<stop offset="0.46" stop-color="#437373"/>
<stop offset="0.6" stop-color="#3C6D75"/>
<stop offset="0.93" stop-color="#306178"/>
</linearGradient>
<linearGradient id="paint3_linear_1503_268" x1="-324.172" y1="-2185.52" x2="5437.47" y2="7211.89" gradientUnits="userSpaceOnUse">
<stop offset="0.46" stop-color="#437373"/>
<stop offset="0.6" stop-color="#3C6D75"/>
<stop offset="0.93" stop-color="#306178"/>
</linearGradient>
<linearGradient id="paint4_linear_1503_268" x1="359.187" y1="-156.135" x2="1601.23" y2="1869.66" gradientUnits="userSpaceOnUse">
<stop offset="0.46" stop-color="#437373"/>
<stop offset="0.6" stop-color="#3C6D75"/>
<stop offset="0.93" stop-color="#306178"/>
</linearGradient>
<linearGradient id="paint5_linear_1503_268" x1="552.688" y1="14.13" x2="916.47" y2="607.477" gradientUnits="userSpaceOnUse">
<stop offset="0.46" stop-color="#437373"/>
<stop offset="0.6" stop-color="#3C6D75"/>
<stop offset="0.93" stop-color="#306178"/>
</linearGradient>
<linearGradient id="paint6_linear_1503_268" x1="462.782" y1="-290.355" x2="1656.79" y2="1657.11" gradientUnits="userSpaceOnUse">
<stop offset="0.46" stop-color="#437373"/>
<stop offset="0.6" stop-color="#3C6D75"/>
<stop offset="0.93" stop-color="#306178"/>
</linearGradient>
<linearGradient id="paint7_linear_1503_268" x1="342.437" y1="-556.605" x2="2639.53" y2="3190.02" gradientUnits="userSpaceOnUse">
<stop offset="0.46" stop-color="#437373"/>
<stop offset="0.6" stop-color="#3C6D75"/>
<stop offset="0.93" stop-color="#306178"/>
</linearGradient>
<linearGradient id="paint8_linear_1503_268" x1="294.453" y1="-970.23" x2="3493.67" y2="4247.81" gradientUnits="userSpaceOnUse">
<stop offset="0.46" stop-color="#437373"/>
<stop offset="0.6" stop-color="#3C6D75"/>
<stop offset="0.93" stop-color="#306178"/>
</linearGradient>
<linearGradient id="paint9_linear_1503_268" x1="119.849" y1="124.185" x2="585.858" y2="884.253" gradientUnits="userSpaceOnUse">
<stop offset="0.03" stop-color="#F5EAD3"/>
<stop offset="0.79" stop-color="#F5EBD5" stop-opacity="0"/>
</linearGradient>
<linearGradient id="paint10_linear_1503_268" x1="351.773" y1="223.86" x2="529.098" y2="513.068" gradientUnits="userSpaceOnUse">
<stop offset="0.03" stop-color="#F5EAD3"/>
<stop offset="0.79" stop-color="#F5EBD5" stop-opacity="0"/>
</linearGradient>
<linearGradient id="paint11_linear_1503_268" x1="266.19" y1="318.645" x2="482.984" y2="672.24" gradientUnits="userSpaceOnUse">
<stop offset="0.03" stop-color="#F5EAD3"/>
<stop offset="0.79" stop-color="#F5EBD5" stop-opacity="0"/>
</linearGradient>
<linearGradient id="paint12_linear_1503_268" x1="390.002" y1="75.72" x2="904.342" y2="914.595" gradientUnits="userSpaceOnUse">
<stop offset="0.03" stop-color="#F5EAD3"/>
<stop offset="0.79" stop-color="#F5EBD5" stop-opacity="0"/>
</linearGradient>
<linearGradient id="paint13_linear_1503_268" x1="308.036" y1="390.585" x2="496.248" y2="697.559" gradientUnits="userSpaceOnUse">
<stop offset="0.03" stop-color="#F5EAD3"/>
<stop offset="0.79" stop-color="#F5EBD5" stop-opacity="0"/>
</linearGradient>
</defs>
</svg>
