<svg width="1440" height="444" viewBox="0 0 1440 444" fill="none" xmlns="http://www.w3.org/2000/svg">
<path d="M1557.52 253.5H-146.041V474H1557.52V253.5Z" fill="url(#paint0_linear_1503_405)"/>
<path opacity="0.26" d="M340.261 261C307.421 265.11 189.837 280.155 190.168 297C190.738 325.17 520.823 337.35 520.373 348C519.968 357.96 231.293 348.33 230.693 358.5C230.092 369 536.553 400.335 882.098 417C1248.88 434.685 1548.03 430.5 1548.51 418.5C1548.99 406.5 1259.04 394.905 1258.83 369C1258.61 340.305 1614.31 341.475 1616.05 307.5C1618.68 256.2 810.353 202.215 340.261 261Z" fill="url(#paint1_linear_1503_405)"/>
<path opacity="0.24" d="M677.971 301.5C548.68 304.155 364.351 307.95 364.276 315C364.201 322.59 577.949 335.19 1557.52 357V312C1341.65 302.235 1040.91 294 677.971 301.5Z" fill="url(#paint2_linear_1503_405)"/>
<path opacity="0.57" d="M103.114 460.5C102.934 444.74 591.737 423.24 1569.53 396C1561.03 427.5 1552.52 459 1544.01 490.5C583.582 486.12 103.284 476.12 103.114 460.5Z" fill="url(#paint3_linear_1503_405)"/>
<path d="M-111.52 247.5L1541.01 253.5C1318.43 264.285 1269.34 272.91 1269.34 279C1269.34 293.085 1532.09 301.17 1532 304.5C1531.85 310.5 672.313 288.975 -101.013 268.5L-111.52 247.5Z" fill="url(#paint4_linear_1503_405)"/>
<path d="M-87.5048 327C349.837 325.38 385.379 326.46 434.82 328.5C478.782 330.315 706.624 339.75 706.489 348C706.354 357 432.073 355.5 431.818 366C431.518 378.36 813.235 390.6 813.055 400.5C812.77 416.61 -199.88 411.825 -200.075 396C-200.075 388.77 11.5568 382.92 11.5568 367.5C11.5568 352.5 -187.002 341.895 -186.566 333C-186.296 327.48 -109.553 327.075 -87.5048 327Z" fill="url(#paint5_linear_1503_405)"/>
<path opacity="0.32" d="M670.466 249C583.082 265.89 555.915 273.945 556.395 277.5C557.356 284.415 662.842 272.52 665.963 288C667.87 297.405 630.136 307.5 631.442 316.5C634.774 339.36 884.544 320.46 885.1 327C885.55 332.235 725.881 345.15 726.001 360C726.151 375.825 907.614 381.405 907.614 394.5C907.614 408.9 688.402 416.715 688.478 423C688.583 431.52 1090.89 433.59 1524.5 433.5C1516.49 374 1508.49 314.5 1500.48 255L670.466 249Z" fill="url(#paint6_linear_1503_405)"/>
<path d="M520.373 333H668.965C645.449 323.099 620.188 317.998 594.669 317.998C569.151 317.998 543.89 323.099 520.373 333V333Z" fill="url(#paint7_linear_1503_405)"/>
<path d="M662.961 358.5H819.058C768.04 343.98 713.979 343.98 662.961 358.5V358.5Z" fill="url(#paint8_linear_1503_405)"/>
<path d="M563.9 397.5H714.368C665.498 381.448 612.77 381.448 563.9 397.5V397.5Z" fill="url(#paint9_linear_1503_405)"/>
<path d="M771.029 394.5C779.674 390.137 788.722 386.62 798.046 384C843.764 371.19 884.469 383.55 904.612 391.5L771.029 394.5Z" fill="url(#paint10_linear_1503_405)"/>
<path d="M649.453 250.5C611.164 255.177 573.448 263.72 536.883 276C681.438 275.13 848.882 275.385 849.077 282C849.257 287.52 733.31 294.675 733.506 300C733.821 308.01 1072.06 293.7 1074.22 316.5C1075.57 330.615 947.133 348.435 948.139 358.5C949.4 371.16 1154.22 363.93 1601.04 333L1167.28 247.5C1000.16 271.995 891.103 266.295 820.47 255.255C797.04 251.595 733.01 240.33 649.453 250.5Z" fill="url(#paint11_linear_1503_405)"/>
<path d="M253.207 268.5C396.441 273.96 452.741 280.125 452.831 286.5C452.981 296.82 305.635 304.125 305.74 315C305.845 324.84 449.739 326.76 449.829 333C450.024 345.255 -146.326 376.635 -149.043 348C-150.439 333.3 4.83274 304.755 253.207 268.5Z" fill="url(#paint12_linear_1503_405)"/>
<path d="M608.928 258L865.092 142.5L1104.72 133.5L1210.47 48L1349.29 37.5L1531.09 0L1557.52 279L608.928 258Z" fill="url(#paint13_linear_1503_405)"/>
<path opacity="0.1" d="M735.007 261L990.39 266.415L1512.49 277.5C1516.49 216 1520.49 154.5 1524.5 93L1351.89 135L1195.79 145.5L903.111 177L735.007 261Z" fill="url(#paint14_linear_1503_405)"/>
<path opacity="0.16" d="M927.126 265.5L1200.3 142.5L1345.89 45L1556.02 75C1552.01 140.51 1548.01 206.01 1544.01 271.5L927.126 265.5Z" fill="url(#paint15_linear_1503_405)"/>
<path d="M619.435 253.5L865.588 142.5L925.625 171L619.435 253.5Z" fill="url(#paint16_linear_1503_405)"/>
<path d="M1210.8 48L1104.24 133.5L1200.3 142.5C1203.81 111 1207.31 79.5 1210.8 48Z" fill="url(#paint17_linear_1503_405)"/>
<path d="M1348.89 37.5L1530.5 0L1544.01 45L1348.89 37.5Z" fill="url(#paint18_linear_1503_405)"/>
<path d="M865.588 295.5L1021.68 211.5L1216.81 174L1390.91 87L1541.01 97.5L1640.07 72C1646.58 152.51 1653.09 233.01 1659.58 313.5L1108.74 355.5L1173.28 301.5L865.588 295.5Z" fill="url(#paint19_linear_1503_405)"/>
<path opacity="0.18" d="M870.091 295.5L1122.25 258L1266.34 241.5L1179.28 295.5L1173.28 301.5L870.091 295.5Z" fill="url(#paint20_linear_1503_405)"/>
<path opacity="0.2" d="M1108.74 355.5L1189.79 307.5L1345.89 235.5L1523 319.5L1108.74 355.5Z" fill="url(#paint21_linear_1503_405)"/>
<path opacity="0.21" d="M1168.78 351L1345.89 235.5L1392.42 151.5L1452.45 108L1532 118.5V330L1168.78 351Z" fill="url(#paint22_linear_1503_405)"/>
<path d="M868.59 294L1021.68 211.5L1216.81 174L1078.72 243L868.59 294Z" fill="url(#paint23_linear_1503_405)"/>
<path d="M1216.81 174L1390.91 87L1452.45 108L1228.81 213L1276.84 159L1216.81 174Z" fill="url(#paint24_linear_1503_405)"/>
<path d="M1108.74 355.5L1179.28 295.5L1269.34 240L1353.39 232.5L1189.79 307.5L1108.74 355.5Z" fill="url(#paint25_linear_1503_405)"/>
<path d="M-128.03 28.5L-48.4803 78L89.6055 123L197.673 216L310.243 256.5L428.816 297L89.6055 300L202.175 331.5L-111.52 327C-117.013 227.51 -122.516 128.01 -128.03 28.5Z" fill="url(#paint26_linear_1503_405)"/>
<path opacity="0.13" d="M-132.532 160.5L-87.5045 135L-43.9775 213L34.071 262.5C42.5734 284.998 57.1142 304.72 76.0972 319.5L196.172 330L-141.538 327L-132.532 160.5Z" fill="url(#paint27_linear_1503_405)"/>
<path opacity="0.19" d="M89.6055 300C68.1022 272.5 46.5888 245 25.0654 217.5L164.652 244.5L139.136 220.5L196.172 252L428.816 297L89.6055 300Z" fill="url(#paint28_linear_1503_405)"/>
<path opacity="0.1" d="M-111.52 93L-13.9589 168L89.6054 300L376.284 298.5L196.172 274.5L28.0672 115.5L-54.4841 106.5L-111.52 93Z" fill="url(#paint29_linear_1503_405)"/>
<path d="M-111.52 39C-90.9968 61 -70.484 83 -49.9813 105L89.6054 123L-45.4785 79.5L-111.52 39Z" fill="url(#paint30_linear_1503_405)"/>
<path d="M197.673 216C197.172 228 196.672 240 196.172 252L428.816 297L197.673 216Z" fill="url(#paint31_linear_1503_405)"/>
<path d="M44.5776 286.5L89.6056 300L199.174 330L76.0972 319.5L44.5776 286.5Z" fill="url(#paint32_linear_1503_405)"/>
<path d="M-37.9738 186C-39.975 195 -41.9763 204 -43.9775 213L38.5738 265.5L-37.9738 186Z" fill="url(#paint33_linear_1503_405)"/>
<defs>
<linearGradient id="paint0_linear_1503_405" x1="-320.179" y1="8.65495" x2="2090.75" y2="844.167" gradientUnits="userSpaceOnUse">
<stop offset="0.08" stop-color="#F5EDD8"/>
<stop offset="0.29" stop-color="#B2DAE1"/>
<stop offset="0.45" stop-color="#84CDE8"/>
<stop offset="0.54" stop-color="#73C8EA"/>
<stop offset="0.66" stop-color="#50A6C9"/>
<stop offset="0.78" stop-color="#358DB0"/>
<stop offset="0.89" stop-color="#267EA1"/>
<stop offset="0.97" stop-color="#20799C"/>
</linearGradient>
<linearGradient id="paint1_linear_1503_405" x1="-65.261" y1="332.145" x2="1926.3" y2="332.145" gradientUnits="userSpaceOnUse">
<stop offset="0.09" stop-color="#F5F5F5"/>
<stop offset="0.23" stop-color="#C5E4F1" stop-opacity="0.73"/>
<stop offset="0.38" stop-color="#99D5ED" stop-opacity="0.48"/>
<stop offset="0.48" stop-color="#7ECCEB" stop-opacity="0.32"/>
<stop offset="0.54" stop-color="#73C8EA" stop-opacity="0.26"/>
</linearGradient>
<linearGradient id="paint2_linear_1503_405" x1="-243.527" y1="327.795" x2="1423.09" y2="327.795" gradientUnits="userSpaceOnUse">
<stop offset="0.09" stop-color="#F5F5F5"/>
<stop offset="0.3" stop-color="#B2DEEF"/>
<stop offset="0.46" stop-color="#84CEEB"/>
<stop offset="0.54" stop-color="#73C8EA"/>
</linearGradient>
<linearGradient id="paint3_linear_1503_405" x1="-507.361" y1="443.25" x2="1540.8" y2="443.25" gradientUnits="userSpaceOnUse">
<stop offset="0.09" stop-color="#F5F5F5"/>
<stop offset="0.26" stop-color="#B2CEDA"/>
<stop offset="0.47" stop-color="#6AA4BC"/>
<stop offset="0.61" stop-color="#3C8AAA"/>
<stop offset="0.69" stop-color="#2B80A3"/>
</linearGradient>
<linearGradient id="paint4_linear_1503_405" x1="188.592" y1="276.51" x2="2496.7" y2="276.51" gradientUnits="userSpaceOnUse">
<stop offset="0.09" stop-color="#F5F5F5"/>
<stop offset="0.3" stop-color="#B2DEEF"/>
<stop offset="0.46" stop-color="#84CEEB"/>
<stop offset="0.54" stop-color="#73C8EA"/>
</linearGradient>
<linearGradient id="paint5_linear_1503_405" x1="166.213" y1="368.34" x2="1581.28" y2="368.34" gradientUnits="userSpaceOnUse">
<stop offset="0.09" stop-color="#F5F5F5"/>
<stop offset="0.3" stop-color="#B2DEEF"/>
<stop offset="0.46" stop-color="#84CEEB"/>
<stop offset="0.54" stop-color="#73C8EA"/>
</linearGradient>
<linearGradient id="paint6_linear_1503_405" x1="158.348" y1="341.25" x2="1228.32" y2="341.25" gradientUnits="userSpaceOnUse">
<stop offset="0.09" stop-color="#F5F5F5"/>
<stop offset="0.17" stop-color="#D2E9F3"/>
<stop offset="0.35" stop-color="#8AD2EE"/>
<stop offset="0.48" stop-color="#5CC3EB"/>
<stop offset="0.54" stop-color="#4BBDEA"/>
<stop offset="0.6" stop-color="#46B0DB"/>
<stop offset="0.73" stop-color="#3D9BC0"/>
<stop offset="0.85" stop-color="#388EB1"/>
<stop offset="0.94" stop-color="#3689AB"/>
</linearGradient>
<linearGradient id="paint7_linear_1503_405" x1="475.18" y1="325.5" x2="1057.89" y2="325.5" gradientUnits="userSpaceOnUse">
<stop offset="0.09" stop-color="#F5F5F5"/>
<stop offset="0.17" stop-color="#D2E9F3"/>
<stop offset="0.35" stop-color="#8AD2EE"/>
<stop offset="0.48" stop-color="#5CC3EB"/>
<stop offset="0.54" stop-color="#4BBDEA"/>
<stop offset="0.6" stop-color="#46B0DB"/>
<stop offset="0.73" stop-color="#3D9BC0"/>
<stop offset="0.85" stop-color="#388EB1"/>
<stop offset="0.94" stop-color="#3689AB"/>
</linearGradient>
<linearGradient id="paint8_linear_1503_405" x1="611.269" y1="353.055" x2="1207.49" y2="353.055" gradientUnits="userSpaceOnUse">
<stop offset="0.09" stop-color="#F5F5F5"/>
<stop offset="0.17" stop-color="#D2E9F3"/>
<stop offset="0.35" stop-color="#8AD2EE"/>
<stop offset="0.48" stop-color="#5CC3EB"/>
<stop offset="0.54" stop-color="#4BBDEA"/>
<stop offset="0.6" stop-color="#46B0DB"/>
<stop offset="0.73" stop-color="#3D9BC0"/>
<stop offset="0.85" stop-color="#388EB1"/>
<stop offset="0.94" stop-color="#3689AB"/>
</linearGradient>
<linearGradient id="paint9_linear_1503_405" x1="502.046" y1="391.485" x2="1031.86" y2="391.485" gradientUnits="userSpaceOnUse">
<stop offset="0.09" stop-color="#F5F5F5"/>
<stop offset="0.17" stop-color="#D2E9F3"/>
<stop offset="0.35" stop-color="#8AD2EE"/>
<stop offset="0.48" stop-color="#5CC3EB"/>
<stop offset="0.54" stop-color="#4BBDEA"/>
<stop offset="0.6" stop-color="#46B0DB"/>
<stop offset="0.73" stop-color="#3D9BC0"/>
<stop offset="0.85" stop-color="#388EB1"/>
<stop offset="0.94" stop-color="#3689AB"/>
</linearGradient>
<linearGradient id="paint10_linear_1503_405" x1="742.226" y1="386.49" x2="1172.21" y2="386.49" gradientUnits="userSpaceOnUse">
<stop offset="0.09" stop-color="#F5F5F5"/>
<stop offset="0.17" stop-color="#D2E9F3"/>
<stop offset="0.35" stop-color="#8AD2EE"/>
<stop offset="0.48" stop-color="#5CC3EB"/>
<stop offset="0.54" stop-color="#4BBDEA"/>
<stop offset="0.6" stop-color="#46B0DB"/>
<stop offset="0.73" stop-color="#3D9BC0"/>
<stop offset="0.85" stop-color="#388EB1"/>
<stop offset="0.94" stop-color="#3689AB"/>
</linearGradient>
<linearGradient id="paint11_linear_1503_405" x1="749.445" y1="305.385" x2="2235.77" y2="305.385" gradientUnits="userSpaceOnUse">
<stop offset="0.09" stop-color="#F5F5F5"/>
<stop offset="0.3" stop-color="#B2DEEF"/>
<stop offset="0.46" stop-color="#84CEEB"/>
<stop offset="0.54" stop-color="#73C8EA"/>
</linearGradient>
<linearGradient id="paint12_linear_1503_405" x1="135.729" y1="341.1" x2="-679.893" y2="544.618" gradientUnits="userSpaceOnUse">
<stop offset="0.09" stop-color="#F5F5F5"/>
<stop offset="0.3" stop-color="#B2DEEF"/>
<stop offset="0.46" stop-color="#84CEEB"/>
<stop offset="0.54" stop-color="#73C8EA"/>
</linearGradient>
<linearGradient id="paint13_linear_1503_405" x1="922.083" y1="-164.76" x2="1348.07" y2="682.278" gradientUnits="userSpaceOnUse">
<stop stop-color="#F5D389"/>
<stop offset="0.21" stop-color="#B5C6AC"/>
<stop offset="0.38" stop-color="#87BDC5"/>
<stop offset="0.47" stop-color="#76B9CE"/>
<stop offset="0.5" stop-color="#6EB3C9"/>
<stop offset="0.73" stop-color="#418FAC"/>
<stop offset="0.84" stop-color="#3081A1"/>
</linearGradient>
<linearGradient id="paint14_linear_1503_405" x1="-86.9339" y1="-1804.99" x2="2697.42" y2="2736.37" gradientUnits="userSpaceOnUse">
<stop offset="0.48" stop-color="#306B7D"/>
<stop offset="0.85" stop-color="#225C73"/>
</linearGradient>
<linearGradient id="paint15_linear_1503_405" x1="305.11" y1="-1355.25" x2="2474.28" y2="2182.73" gradientUnits="userSpaceOnUse">
<stop offset="0.48" stop-color="#306B7D"/>
<stop offset="0.85" stop-color="#225C73"/>
</linearGradient>
<linearGradient id="paint16_linear_1503_405" x1="490.159" y1="-247.74" x2="1084.25" y2="721.229" gradientUnits="userSpaceOnUse">
<stop stop-color="#F5EDDA"/>
<stop offset="0.55" stop-color="#F5C55D" stop-opacity="0"/>
</linearGradient>
<linearGradient id="paint17_linear_1503_405" x1="948.364" y1="-249.96" x2="1445.52" y2="560.901" gradientUnits="userSpaceOnUse">
<stop stop-color="#F5EDDA"/>
<stop offset="0.55" stop-color="#F5C55D" stop-opacity="0"/>
</linearGradient>
<linearGradient id="paint18_linear_1503_405" x1="1127.77" y1="-489.39" x2="1845.5" y2="681.262" gradientUnits="userSpaceOnUse">
<stop stop-color="#F5EDDA"/>
<stop offset="0.55" stop-color="#F5C55D" stop-opacity="0"/>
</linearGradient>
<linearGradient id="paint19_linear_1503_405" x1="972.619" y1="-62.415" x2="1568.65" y2="461.842" gradientUnits="userSpaceOnUse">
<stop stop-color="#F5D389"/>
<stop offset="0.03" stop-color="#E7CF8E"/>
<stop offset="0.2" stop-color="#9FB8A8"/>
<stop offset="0.33" stop-color="#71A9B9"/>
<stop offset="0.39" stop-color="#60A4BF"/>
<stop offset="0.84" stop-color="#3081A1"/>
</linearGradient>
<linearGradient id="paint20_linear_1503_405" x1="338.415" y1="-920.355" x2="1421.76" y2="846.6" gradientUnits="userSpaceOnUse">
<stop offset="0.4" stop-color="#406E80"/>
<stop offset="0.84" stop-color="#225A70"/>
</linearGradient>
<linearGradient id="paint21_linear_1503_405" x1="486.062" y1="-1014.25" x2="1716.75" y2="993.007" gradientUnits="userSpaceOnUse">
<stop offset="0.4" stop-color="#406E80"/>
<stop offset="0.84" stop-color="#225A70"/>
</linearGradient>
<linearGradient id="paint22_linear_1503_405" x1="351.399" y1="-1392.61" x2="1880.1" y2="1100.74" gradientUnits="userSpaceOnUse">
<stop offset="0.4" stop-color="#406E80"/>
<stop offset="0.84" stop-color="#225A70"/>
</linearGradient>
<linearGradient id="paint23_linear_1503_405" x1="686.797" y1="-345.78" x2="1214.63" y2="515.152" gradientUnits="userSpaceOnUse">
<stop offset="0.03" stop-color="#F5D89A"/>
<stop offset="0.79" stop-color="#F5C55D" stop-opacity="0"/>
</linearGradient>
<linearGradient id="paint24_linear_1503_405" x1="1031.56" y1="-342.99" x2="1474.61" y2="379.655" gradientUnits="userSpaceOnUse">
<stop offset="0.03" stop-color="#F5D89A"/>
<stop offset="0.79" stop-color="#F5C55D" stop-opacity="0"/>
</linearGradient>
<linearGradient id="paint25_linear_1503_405" x1="1059.64" y1="14.76" x2="1308.24" y2="420.228" gradientUnits="userSpaceOnUse">
<stop offset="0.03" stop-color="#F5D89A"/>
<stop offset="0.79" stop-color="#F5C55D" stop-opacity="0"/>
</linearGradient>
<linearGradient id="paint26_linear_1503_405" x1="306.265" y1="-177.75" x2="-32.822" y2="563.934" gradientUnits="userSpaceOnUse">
<stop stop-color="#F5C55D"/>
<stop offset="0.12" stop-color="#CAB067"/>
<stop offset="0.35" stop-color="#828C78"/>
<stop offset="0.51" stop-color="#547682"/>
<stop offset="0.59" stop-color="#436D86"/>
<stop offset="0.66" stop-color="#39627B"/>
<stop offset="0.76" stop-color="#2D566F"/>
<stop offset="0.86" stop-color="#29526B"/>
</linearGradient>
<linearGradient id="paint27_linear_1503_405" x1="555.105" y1="-1207.32" x2="-210.653" y2="921.003" gradientUnits="userSpaceOnUse">
<stop offset="0.11" stop-color="#2F4B5C"/>
<stop offset="0.2" stop-color="#2A4657"/>
<stop offset="0.53" stop-color="#1F3B4B"/>
<stop offset="0.86" stop-color="#1B3747"/>
</linearGradient>
<linearGradient id="paint28_linear_1503_405" x1="534.212" y1="-595.68" x2="81.3239" y2="663.029" gradientUnits="userSpaceOnUse">
<stop offset="0.11" stop-color="#2F4B5C"/>
<stop offset="0.2" stop-color="#2A4657"/>
<stop offset="0.53" stop-color="#1F3B4B"/>
<stop offset="0.86" stop-color="#1B3747"/>
</linearGradient>
<linearGradient id="paint29_linear_1503_405" x1="531.345" y1="-911.685" x2="-56.6733" y2="722.573" gradientUnits="userSpaceOnUse">
<stop offset="0.11" stop-color="#2F4B5C"/>
<stop offset="0.2" stop-color="#2A4657"/>
<stop offset="0.53" stop-color="#1F3B4B"/>
<stop offset="0.86" stop-color="#1B3747"/>
</linearGradient>
<linearGradient id="paint30_linear_1503_405" x1="94.9938" y1="-213.09" x2="-63.8401" y2="228.378" gradientUnits="userSpaceOnUse">
<stop offset="0.03" stop-color="#F5D89A"/>
<stop offset="0.79" stop-color="#F5C55D" stop-opacity="0"/>
</linearGradient>
<linearGradient id="paint31_linear_1503_405" x1="405.447" y1="0.555005" x2="265.279" y2="390.146" gradientUnits="userSpaceOnUse">
<stop offset="0.03" stop-color="#F5D89A"/>
<stop offset="0.79" stop-color="#F5C55D" stop-opacity="0"/>
</linearGradient>
<linearGradient id="paint32_linear_1503_405" x1="203.992" y1="80.325" x2="81.6353" y2="420.378" gradientUnits="userSpaceOnUse">
<stop offset="0.03" stop-color="#F5D89A"/>
<stop offset="0.79" stop-color="#F5C55D" stop-opacity="0"/>
</linearGradient>
<linearGradient id="paint33_linear_1503_405" x1="131.902" y1="-139.545" x2="-56.2731" y2="383.445" gradientUnits="userSpaceOnUse">
<stop offset="0.03" stop-color="#F5D89A"/>
<stop offset="0.79" stop-color="#F5C55D" stop-opacity="0"/>
</linearGradient>
</defs>
</svg>
